<svg xmlns="http://www.w3.org/2000/svg" viewBox="0 0 64 64">
  <defs>
    <linearGradient id="grad" x1="12%" x2="88%" y1="18%" y2="82%">
      <stop offset="0%" stop-color="#2563eb" />
      <stop offset="100%" stop-color="#60a5fa" />
    </linearGradient>
  </defs>
  <rect x="4" y="4" width="56" height="56" rx="16" fill="url(#grad)" />
  <path
    fill="#f8fafc"
    d="M20 28c0-6.627 5.373-12 12-12s12 5.373 12 12c0 5.418-3.613 9.978-8.536 11.49l1.808 6.517a2 2 0 0 1-1.924 2.493H28.65a2 2 0 0 1-1.924-2.493l1.804-6.503C23.613 37.982 20 33.42 20 28zm12-8a8 8 0 1 0 0 16 8 8 0 0 0 0-16z"
  />
</svg>
